<svg width="206" height="38" viewBox="0 0 206 38" fill="none" xmlns="http://www.w3.org/2000/svg">
<circle cx="19" cy="19" r="18.5" stroke="#007580"/>
<g clip-path="url(#clip0_101_565)">
<path d="M27 19C27 14.5817 23.4183 11 19 11C14.5817 11 11 14.5817 11 19C11 22.993 13.9253 26.3027 17.75 26.9027V21.3127H15.7187V19H17.75V17.2373C17.75 15.2327 18.9443 14.125 20.7717 14.125C21.6467 14.125 22.5623 14.2813 22.5623 14.2813V16.25H21.5537C20.56 16.25 20.25 16.8667 20.25 17.5V19H22.4687L22.114 21.3127H20.25V26.9027C24.0747 26.3027 27 22.9927 27 19Z" fill="#007580"/>
</g>
<g clip-path="url(#clip1_101_565)">
<path d="M58.0333 25.5C64.07 25.5 67.3723 20.498 67.3723 16.1613C67.3723 16.0207 67.369 15.877 67.3627 15.7363C68.0052 15.2717 68.5596 14.6961 69 14.0367C68.4017 14.3027 67.7667 14.4767 67.116 14.552C67.8008 14.1415 68.3136 13.4967 68.5593 12.737C67.915 13.1189 67.2104 13.3883 66.4757 13.5337C65.9807 13.0075 65.3261 12.659 64.6132 12.5422C63.9002 12.4253 63.1687 12.5467 62.5316 12.8874C61.8946 13.2281 61.3875 13.7692 61.0889 14.4271C60.7903 15.0849 60.7168 15.8228 60.8797 16.5267C59.575 16.4612 58.2986 16.1223 57.1334 15.5319C55.9681 14.9416 54.9398 14.1129 54.1153 13.0997C53.6963 13.8222 53.5681 14.6771 53.7567 15.4907C53.9454 16.3044 54.4368 17.0156 55.131 17.48C54.6098 17.4635 54.0999 17.3232 53.6437 17.0707V17.1113C53.6432 17.8695 53.9053 18.6044 54.3855 19.1912C54.8656 19.778 55.5341 20.1804 56.2773 20.33C55.7946 20.4621 55.288 20.4814 54.7967 20.3863C55.0064 21.0383 55.4145 21.6086 55.964 22.0175C56.5135 22.4264 57.1769 22.6536 57.8617 22.6673C57.1805 23.2025 56.4005 23.598 55.5662 23.8312C54.732 24.0643 53.8599 24.1305 53 24.026C54.5019 24.9894 56.249 25.501 58.0333 25.5Z" fill="#636270"/>
</g>
<path d="M105.667 15.6667C105.667 15.4899 105.737 15.3203 105.862 15.1953C105.987 15.0702 106.156 15 106.333 15C106.51 15 106.68 15.0702 106.805 15.1953C106.93 15.3203 107 15.4899 107 15.6667C107 15.8435 106.93 16.013 106.805 16.1381C106.68 16.2631 106.51 16.3333 106.333 16.3333C106.156 16.3333 105.987 16.2631 105.862 16.1381C105.737 16.013 105.667 15.8435 105.667 15.6667Z" fill="#636270"/>
<path fill-rule="evenodd" clip-rule="evenodd" d="M103 15.8334C102.16 15.8334 101.355 16.167 100.761 16.7609C100.167 17.3547 99.8333 18.1602 99.8333 19C99.8333 19.8399 100.167 20.6453 100.761 21.2392C101.355 21.8331 102.16 22.1667 103 22.1667C103.84 22.1667 104.645 21.8331 105.239 21.2392C105.833 20.6453 106.167 19.8399 106.167 19C106.167 18.1602 105.833 17.3547 105.239 16.7609C104.645 16.167 103.84 15.8334 103 15.8334ZM100.833 19C100.833 18.4254 101.062 17.8743 101.468 17.468C101.874 17.0616 102.425 16.8334 103 16.8334C103.575 16.8334 104.126 17.0616 104.532 17.468C104.938 17.8743 105.167 18.4254 105.167 19C105.167 19.5747 104.938 20.1258 104.532 20.5321C104.126 20.9384 103.575 21.1667 103 21.1667C102.425 21.1667 101.874 20.9384 101.468 20.5321C101.062 20.1258 100.833 19.5747 100.833 19Z" fill="#636270"/>
<path fill-rule="evenodd" clip-rule="evenodd" d="M106.505 12.8886C104.176 12.6304 101.824 12.6304 99.4946 12.8886C98.1533 13.0386 97.07 14.0953 96.9126 15.4433C96.6362 17.8064 96.6362 20.1936 96.9126 22.5566C97.07 23.9046 98.1526 24.9613 99.4946 25.1113C101.805 25.3693 104.195 25.3693 106.505 25.1113C107.847 24.9613 108.93 23.9046 109.087 22.5566C109.364 20.1936 109.364 17.8064 109.087 15.4433C108.93 14.0953 107.847 13.0386 106.505 12.8886ZM99.6053 13.882C101.861 13.6319 104.138 13.6319 106.395 13.882C107.281 13.982 107.991 14.6813 108.095 15.56C108.362 17.8455 108.362 20.1544 108.095 22.44C107.991 23.3186 107.281 24.0186 106.395 24.1173C104.138 24.3674 101.861 24.3674 99.6053 24.1173C98.7186 24.0186 98.0086 23.3186 97.9053 22.44C97.638 20.1544 97.638 17.8455 97.9053 15.56C98.0086 14.6813 98.7186 13.9813 99.6053 13.8826V13.882Z" fill="#636270"/>
<g clip-path="url(#clip2_101_565)">
<path d="M145 11C140.581 11 137 14.5813 137 19C137 22.3907 139.109 25.2843 142.084 26.45C142.016 25.8157 141.95 24.8467 142.113 24.1563C142.259 23.5313 143.05 20.1813 143.05 20.1813C143.05 20.1813 142.809 19.703 142.809 18.9937C142.809 17.8813 143.453 17.05 144.256 17.05C144.937 17.05 145.269 17.5627 145.269 18.178C145.269 18.8657 144.831 19.8907 144.606 20.8407C144.419 21.6373 145.006 22.2873 145.791 22.2873C147.212 22.2873 148.306 20.7873 148.306 18.625C148.306 16.7093 146.931 15.3687 144.966 15.3687C142.691 15.3687 141.353 17.075 141.353 18.8407C141.353 19.528 141.619 20.2657 141.95 20.6657C142.016 20.7437 142.025 20.8157 142.006 20.8937C141.947 21.147 141.81 21.6903 141.784 21.8C141.75 21.9467 141.669 21.978 141.516 21.9063C140.516 21.4407 139.891 19.9813 139.891 18.8063C139.891 16.2813 141.725 13.9657 145.175 13.9657C147.95 13.9657 150.106 15.9437 150.106 18.5873C150.106 21.344 148.369 23.5623 145.956 23.5623C145.147 23.5623 144.384 23.1407 144.122 22.6437C144.122 22.6437 143.722 24.172 143.625 24.547C143.444 25.2403 142.956 26.1127 142.631 26.6437C143.399 26.8804 144.197 27.0005 145 27C149.419 27 153 23.4187 153 19C153 14.5813 149.419 11 145 11Z" fill="#636270"/>
</g>
<path d="M194.841 15.7999C194.841 15.7999 194.684 14.6966 194.203 14.2126C193.594 13.5749 192.912 13.5719 192.6 13.5343C190.363 13.3719 187.003 13.3719 187.003 13.3719H186.997C186.997 13.3719 183.638 13.3719 181.4 13.5343C181.087 13.5719 180.406 13.5749 179.797 14.2126C179.316 14.6966 179.163 15.7999 179.163 15.7999C179.163 15.7999 179 17.0966 179 18.3906V19.6029C179 20.8969 179.159 22.1936 179.159 22.1936C179.159 22.1936 179.316 23.2969 179.794 23.7813C180.403 24.4186 181.203 24.3969 181.559 24.4656C182.841 24.5876 187 24.6249 187 24.6249C187 24.6249 190.362 24.6186 192.6 24.4593C192.913 24.4219 193.594 24.4186 194.203 23.7813C194.684 23.2969 194.841 22.1936 194.841 22.1936C194.841 22.1936 195 20.9003 195 19.6033V18.3909C195 17.0973 194.841 15.8003 194.841 15.8003V15.7999ZM185.347 21.0749V16.5783L189.668 18.8343L185.347 21.0749Z" fill="#636270"/>
<defs>
<clipPath id="clip0_101_565">
<rect width="16" height="16" fill="white" transform="translate(11 11)"/>
</clipPath>
<clipPath id="clip1_101_565">
<rect width="16" height="16" fill="white" transform="translate(53 11)"/>
</clipPath>
<clipPath id="clip2_101_565">
<rect width="16" height="16" fill="white" transform="translate(137 11)"/>
</clipPath>
</defs>
</svg>
